<svg width="44" height="44" viewBox="0 0 44 44" fill="none" xmlns="http://www.w3.org/2000/svg">
<g clip-path="url(#clip0_6166_38620)">
<path fill-rule="evenodd" clip-rule="evenodd" d="M25.3004 14.2C25.3004 15.415 24.3155 16.4 23.1004 16.4C21.8854 16.4 20.9004 15.415 20.9004 14.2C20.9004 12.985 21.8854 12 23.1004 12C24.3155 12 25.3004 12.985 25.3004 14.2ZM30.8003 21.9001V24.1001C28.8754 24.0891 26.7194 23.1321 25.3004 21.9551V25.7501H28.6004C29.8104 25.7501 30.8003 26.7401 30.8003 27.9501V34H28.6004V28.5001H23.1004C21.8904 28.5001 20.9004 27.5101 20.9004 26.3001V19.7991C20.9004 18.6441 21.7364 17.6211 22.8914 17.5221C23.3754 17.4781 23.8154 17.5881 24.2004 17.8081H24.2114C24.2169 17.8081 24.2196 17.8108 24.2224 17.8136C24.2251 17.8163 24.2279 17.8191 24.2334 17.8191C24.4864 17.9401 24.7174 18.1051 24.9044 18.3141L26.3234 19.8871C27.4014 21.0751 29.1064 21.9221 30.8003 21.9001ZM17.6004 28.5001C17.6004 30.3261 19.0744 31.8001 20.9004 31.8001C22.3414 31.8001 23.5624 30.8761 24.0134 29.6001H26.2904C25.7844 32.1081 23.5624 34 20.9004 34C17.8644 34 15.4004 31.5361 15.4004 28.5001C15.4004 25.8381 17.2924 23.6161 19.8004 23.1101V25.3871C18.5244 25.8491 17.6004 27.0591 17.6004 28.5001Z" fill="#666666"/>
</g>
<g clip-path="url(#clip1_6166_38620)">
<mask id="mask0_6166_38620" style="mask-type:luminance" maskUnits="userSpaceOnUse" x="8" y="10" width="11" height="11">
<path d="M8 10H18.62V20.62H8V10Z" fill="white"/>
</mask>
<g mask="url(#mask0_6166_38620)">
<path d="M8 19.2922C8 20.0223 8.59739 20.6197 9.32756 20.6197H17.2926C18.0228 20.6197 18.6202 20.0223 18.6202 19.2922V11.327C18.6202 10.5969 18.0228 9.99951 17.2926 9.99951H9.32756C8.59735 9.99955 8 10.5969 8 11.327V19.2921V19.2922Z" fill="#007AC9"/>
</g>
<mask id="mask1_6166_38620" style="mask-type:luminance" maskUnits="userSpaceOnUse" x="8" y="10" width="11" height="11">
<path d="M8 10H18.62V20.62H8V10Z" fill="white"/>
</mask>
<g mask="url(#mask1_6166_38620)">
<path d="M10.679 18.3283C10.5537 18.2258 10.4512 18.0322 10.4512 17.8271C10.4512 17.4627 10.7587 17.1552 11.1232 17.1552C11.3282 17.1552 11.4762 17.2349 11.5901 17.3374C12.0913 17.8386 12.6607 18.1005 13.4011 18.1005C14.1869 18.1005 14.7792 17.6221 14.7792 16.8932V16.8705C14.7792 16.0845 14.0617 15.6403 12.9455 15.6403H12.6607C12.3304 15.6403 12.0571 15.367 12.0571 15.0367C12.0571 14.8545 12.1368 14.6837 12.3532 14.4672L14.2211 12.4741H11.3282C10.9865 12.4741 10.7131 12.2007 10.7131 11.8704C10.7131 11.5287 10.9865 11.2554 11.3282 11.2554H15.4056C15.8043 11.2554 16.1004 11.4946 16.1004 11.8704C16.1004 12.2007 15.9409 12.3943 15.7018 12.6335L13.8225 14.5811C15.0298 14.7292 16.1687 15.3443 16.1687 16.8135V16.8363C16.1687 18.3055 15.0412 19.3648 13.3783 19.3648C12.2052 19.3648 11.3282 18.9547 10.679 18.3283" fill="white"/>
</g>
</g>
<defs>
<clipPath id="clip0_6166_38620">
<rect width="44" height="44" fill="white"/>
</clipPath>
<clipPath id="clip1_6166_38620">
<rect width="10.62" height="10.62" fill="white" transform="translate(8 10)"/>
</clipPath>
</defs>
</svg>
