<svg width="44" height="44" viewBox="0 0 44 44" fill="none" xmlns="http://www.w3.org/2000/svg">
<g clip-path="url(#clip0_6166_38623)">
<path fill-rule="evenodd" clip-rule="evenodd" d="M25.3004 14.2C25.3004 15.415 24.3155 16.4 23.1004 16.4C21.8854 16.4 20.9004 15.415 20.9004 14.2C20.9004 12.985 21.8854 12 23.1004 12C24.3155 12 25.3004 12.985 25.3004 14.2ZM30.8003 21.9001V24.1001C28.8754 24.0891 26.7194 23.1321 25.3004 21.9551V25.7501H28.6004C29.8104 25.7501 30.8003 26.7401 30.8003 27.9501V34H28.6004V28.5001H23.1004C21.8904 28.5001 20.9004 27.5101 20.9004 26.3001V19.7991C20.9004 18.6441 21.7364 17.6211 22.8914 17.5221C23.3754 17.4781 23.8154 17.5881 24.2004 17.8081H24.2114C24.2169 17.8081 24.2196 17.8108 24.2224 17.8136C24.2251 17.8163 24.2279 17.8191 24.2334 17.8191C24.4864 17.9401 24.7174 18.1051 24.9044 18.3141L26.3234 19.8871C27.4014 21.0751 29.1064 21.9221 30.8003 21.9001ZM17.6004 28.5001C17.6004 30.3261 19.0744 31.8001 20.9004 31.8001C22.3414 31.8001 23.5624 30.8761 24.0134 29.6001H26.2904C25.7844 32.1081 23.5624 34 20.9004 34C17.8644 34 15.4004 31.5361 15.4004 28.5001C15.4004 25.8381 17.2924 23.6161 19.8004 23.1101V25.3871C18.5244 25.8491 17.6004 27.0591 17.6004 28.5001Z" fill="#666666"/>
</g>
<g clip-path="url(#clip1_6166_38623)">
<mask id="mask0_6166_38623" style="mask-type:luminance" maskUnits="userSpaceOnUse" x="8" y="10" width="11" height="11">
<path d="M8 10H18.62V20.62H8V10Z" fill="white"/>
</mask>
<g mask="url(#mask0_6166_38623)">
<path d="M8 19.2922C8 20.0223 8.59739 20.6197 9.32756 20.6197H17.2926C18.0228 20.6197 18.6202 20.0223 18.6202 19.2922V11.327C18.6202 10.5969 18.0228 9.99951 17.2926 9.99951H9.32756C8.59735 9.99955 8 10.5969 8 11.327V19.2921V19.2922Z" fill="#007AC9"/>
</g>
<mask id="mask1_6166_38623" style="mask-type:luminance" maskUnits="userSpaceOnUse" x="8" y="10" width="11" height="11">
<path d="M8 10H18.62V20.62H8V10Z" fill="white"/>
</mask>
<g mask="url(#mask1_6166_38623)">
<path d="M10.7297 17.9979L13.1784 15.9135C14.2718 14.991 14.6705 14.4785 14.6705 13.7609C14.6705 12.9751 14.1124 12.5195 13.3834 12.5195C12.7456 12.5195 12.3014 12.8156 11.8117 13.4078C11.7092 13.5217 11.5498 13.6243 11.322 13.6243C11.2382 13.6244 11.1552 13.608 11.0777 13.576C11.0003 13.544 10.9299 13.497 10.8706 13.4378C10.8114 13.3785 10.7644 13.3081 10.7324 13.2307C10.7004 13.1532 10.684 13.0702 10.6841 12.9864C10.6841 12.8384 10.7411 12.6789 10.8436 12.5537C11.4928 11.745 12.2331 11.2666 13.4859 11.2666C15.0464 11.2666 16.117 12.2233 16.117 13.647V13.6698C16.117 14.9226 15.4563 15.606 14.0441 16.7564L12.4039 18.1231H15.6386C15.7194 18.1228 15.7996 18.1384 15.8743 18.1692C15.9491 18.2 16.017 18.2453 16.0742 18.3025C16.1314 18.3597 16.1767 18.4276 16.2075 18.5024C16.2383 18.5772 16.2539 18.6573 16.2536 18.7382C16.2536 19.0799 15.9803 19.3532 15.6386 19.3532H11.1169C10.6841 19.3532 10.3652 19.1026 10.3652 18.6926C10.3652 18.4193 10.4905 18.1915 10.7297 17.9979Z" fill="white"/>
</g>
</g>
<defs>
<clipPath id="clip0_6166_38623">
<rect width="44" height="44" fill="white"/>
</clipPath>
<clipPath id="clip1_6166_38623">
<rect width="10.62" height="10.62" fill="white" transform="translate(8 10)"/>
</clipPath>
</defs>
</svg>
