<svg width="44" height="44" viewBox="0 0 44 44" fill="none" xmlns="http://www.w3.org/2000/svg">
<g clip-path="url(#clip0_6166_38621)">
<path fill-rule="evenodd" clip-rule="evenodd" d="M25.3004 14.2C25.3004 15.415 24.3155 16.4 23.1004 16.4C21.8854 16.4 20.9004 15.415 20.9004 14.2C20.9004 12.985 21.8854 12 23.1004 12C24.3155 12 25.3004 12.985 25.3004 14.2ZM30.8003 21.9001V24.1001C28.8754 24.0891 26.7194 23.1321 25.3004 21.9551V25.7501H28.6004C29.8104 25.7501 30.8003 26.7401 30.8003 27.9501V34H28.6004V28.5001H23.1004C21.8904 28.5001 20.9004 27.5101 20.9004 26.3001V19.7991C20.9004 18.6441 21.7364 17.6211 22.8914 17.5221C23.3754 17.4781 23.8154 17.5881 24.2004 17.8081H24.2114C24.2169 17.8081 24.2196 17.8108 24.2224 17.8136C24.2251 17.8163 24.2279 17.8191 24.2334 17.8191C24.4864 17.9401 24.7174 18.1051 24.9044 18.3141L26.3234 19.8871C27.4014 21.0751 29.1064 21.9221 30.8003 21.9001ZM17.6004 28.5001C17.6004 30.3261 19.0744 31.8001 20.9004 31.8001C22.3414 31.8001 23.5624 30.8761 24.0134 29.6001H26.2904C25.7844 32.1081 23.5624 34 20.9004 34C17.8644 34 15.4004 31.5361 15.4004 28.5001C15.4004 25.8381 17.2924 23.6161 19.8004 23.1101V25.3871C18.5244 25.8491 17.6004 27.0591 17.6004 28.5001Z" fill="#666666"/>
</g>
<g clip-path="url(#clip1_6166_38621)">
<mask id="mask0_6166_38621" style="mask-type:luminance" maskUnits="userSpaceOnUse" x="8" y="10" width="11" height="11">
<path d="M8.07617 10H18.6962V20.62H8.07617V10Z" fill="white"/>
</mask>
<g mask="url(#mask0_6166_38621)">
<path d="M8.07617 19.2922C8.07617 20.0223 8.67356 20.6197 9.40373 20.6197H17.3688C18.099 20.6197 18.6964 20.0223 18.6964 19.2922V11.327C18.6964 10.5969 18.099 9.99951 17.3688 9.99951H9.40373C8.67352 9.99955 8.07617 10.5969 8.07617 11.327V19.2921V19.2922Z" fill="#DC0451"/>
</g>
<mask id="mask1_6166_38621" style="mask-type:luminance" maskUnits="userSpaceOnUse" x="8" y="10" width="11" height="11">
<path d="M8.07617 10H18.6962V20.62H8.07617V10Z" fill="white"/>
</mask>
<g mask="url(#mask1_6166_38621)">
<path d="M12.836 12.6678L12.016 12.9184C11.9362 12.9412 11.8338 12.9526 11.7654 12.9526C11.4351 12.9526 11.1504 12.6792 11.1504 12.3603C11.1504 12.0642 11.3326 11.8364 11.6174 11.7567L12.8247 11.3694C13.098 11.2897 13.303 11.2441 13.508 11.2441H13.5308C13.9294 11.2441 14.2256 11.5517 14.2256 11.9389V18.6815C14.2256 19.0688 13.918 19.3763 13.5308 19.3763C13.155 19.3763 12.836 19.0688 12.836 18.6815V12.6678Z" fill="white"/>
</g>
</g>
<defs>
<clipPath id="clip0_6166_38621">
<rect width="44" height="44" fill="white"/>
</clipPath>
<clipPath id="clip1_6166_38621">
<rect width="10.62" height="10.62" fill="white" transform="translate(8 10)"/>
</clipPath>
</defs>
</svg>
