<?xml version="1.0" encoding="UTF-8" standalone="no"?>
<svg width="192" height="192" viewBox="0 0 192 192" fill="none" version="1.1" xmlns="http://www.w3.org/2000/svg" xmlns:svg="http://www.w3.org/2000/svg">
  <rect width="192" height="192" x="0" y="0" rx="24" ry="24" fill="#007AC9" />
  <path d="M33.2809 133.427C31.4397 131.763 29.7651 128.933 29.7651 125.771C29.7651 120.279 34.1177 115.952 39.6425 115.952C42.3211 115.952 44.1623 116.784 46.0041 118.282C51.6962 124.107 57.2205 127.269 65.0889 127.269C76.4725 127.269 84.0058 119.946 84.0058 104.302V37.395C84.0058 31.7361 88.6934 27.2427 94.3855 27.2427C100.078 27.2427 104.765 31.7361 104.765 37.395V104.967C104.765 118.781 100.58 129.1 93.716 135.924C86.8521 142.747 76.9753 146.243 65.2567 146.243C51.0262 146.243 40.6465 140.75 33.2809 133.427Z" fill="white" id="path2" />
  <path d="M136.014 150.123H112.309C109.81 150.123 107.765 148.305 107.765 145.73C107.765 143.913 108.447 142.398 109.81 140.808L134.726 111.272C136.393 109.303 137.68 108.243 140.406 108.243C142.905 108.243 144.95 110.212 144.95 112.711V142.474H149.039C151.236 142.474 152.902 144.215 152.902 146.336C152.902 148.457 151.236 150.123 149.039 150.123H144.95V157.999C144.95 160.498 142.981 162.391 140.482 162.391C137.983 162.391 136.014 160.498 136.014 157.999L136.014 150.123ZM136.014 142.474V121.496L118.595 142.474H136.014Z" fill="white" id="path3" />
</svg>
